<?xml version="1.0" encoding="utf-8"?>
<!-- Generator: Adobe Illustrator 24.0.1, SVG Export Plug-In . SVG Version: 6.00 Build 0)  -->
<svg version="1.1" id="Camada_2" xmlns="http://www.w3.org/2000/svg" xmlns:xlink="http://www.w3.org/1999/xlink" x="0px" y="0px"
	 viewBox="0 0 10 10" style="enable-background:new 0 0 10 10;" xml:space="preserve">
<style type="text/css">
	.st0{fill:#8ACFDB;}
	.st1{fill:#7C56A0;}
	.st2{fill:#00934A;}
	.st3{fill:#5CB782;}
	.st4{fill:#FAFDFC;}
	.st5{fill:#FFFFFF;}
	.st6{fill:none;}
	.st7{fill:#010202;}
</style>
<path class="st0" d="M2.4,3.89c0,0,0.09,0.86-0.23,2.25c0,0-0.3,3.37,2.59,3.7c0,0,4.4,0.45,3.87-4.12c0,0-0.25-0.97-1.16-1.67
	c0,0-1.11-0.93-1.44-1.71c0,0-0.9-1.79-2.78-0.92L2.4,3.89z"/>
<path class="st1" d="M2.39,8.93"/>
<path class="st2" d="M2.27,0.34c0,0,1.27,1.09,1.32,1.31l0.16-0.1L2.6,0.14L2.27,0.34z"/>
<g>
	<path class="st1" d="M2.68,6.86c-0.02-0.32,0.02-0.63,0.1-0.94c0.02-0.09,0.08-0.17,0.08-0.27c0.15-0.33,0.34-0.62,0.58-0.88
		c0.08-0.09,0.19-0.15,0.25-0.24c0.09-0.03,0.15-0.1,0.23-0.15c0.38-0.24,0.8-0.39,1.25-0.43C5.66,3.9,6.12,3.98,6.56,4.18
		c0.22,0.1,0.42,0.23,0.62,0.36c0.15,0.17,0.33,0.32,0.46,0.51c0.1,0.15,0.19,0.29,0.27,0.45c0.14,0.31,0.24,0.64,0.25,0.98
		c0.01,0.32,0,0.63-0.08,0.94C8.06,7.48,8.02,7.53,8.03,7.59C7.98,7.64,7.98,7.71,7.95,7.77C7.82,8.07,7.63,8.34,7.41,8.59
		C7.28,8.7,7.15,8.82,7.01,8.92C6.64,9.18,6.24,9.34,5.8,9.41C5.7,9.42,5.61,9.45,5.52,9.45c-0.59,0-1.13-0.17-1.62-0.49
		C3.86,8.93,3.82,8.89,3.77,8.88C3.7,8.82,3.64,8.75,3.57,8.69c-0.36-0.31-0.6-0.71-0.75-1.16C2.74,7.32,2.71,7.09,2.68,6.86z"/>
	<path class="st3" d="M4.47,6.7c0,0.43,0,0.86,0,1.28c0,0.07,0.01,0.15,0.09,0.15c0.09,0,0.1-0.07,0.1-0.14c0-0.01,0-0.02,0-0.03
		c0-0.84,0-1.68,0-2.52c0-0.08,0.01-0.18-0.09-0.18c-0.11,0-0.1,0.1-0.1,0.18C4.47,5.86,4.47,6.28,4.47,6.7z"/>
	<path class="st3" d="M5.63,6.69c0,0.22,0,0.43,0,0.65c0,0.08,0.01,0.15,0.11,0.14c0.09,0,0.11-0.07,0.11-0.14c0-0.43,0-0.86,0-1.29
		c0-0.08-0.03-0.14-0.12-0.14c-0.08,0-0.1,0.07-0.1,0.14C5.63,6.26,5.63,6.48,5.63,6.69z"/>
	<path class="st3" d="M5.07,6.69c0-0.21,0-0.42,0-0.64c0-0.08-0.02-0.15-0.11-0.15c-0.09,0-0.1,0.07-0.1,0.15c0,0.43,0,0.85,0,1.28
		c0,0.08,0.01,0.15,0.11,0.15c0.09,0,0.11-0.07,0.11-0.14"/>
	<path class="st3" d="M4.06,6.69c0,0.22,0,0.44,0,0.67c0,0.06,0.01,0.12,0.09,0.13c0.08,0,0.1-0.06,0.1-0.13c0-0.44,0-0.88,0-1.32
		c0-0.07-0.03-0.13-0.1-0.13c-0.08,0-0.09,0.07-0.09,0.13C4.06,6.25,4.06,6.47,4.06,6.69z"/>
	<path class="st3" d="M6.63,6.7c0-0.22,0-0.45,0-0.67c0-0.07-0.02-0.13-0.1-0.13c-0.07,0-0.09,0.06-0.09,0.13c0,0.44,0,0.88,0,1.33
		c0,0.06,0.01,0.12,0.09,0.13c0.08,0,0.1-0.06,0.1-0.13C6.63,7.14,6.63,6.92,6.63,6.7z"/>
	<path class="st3" d="M6.25,6.7c0-0.1,0-0.21,0-0.31c0-0.08-0.04-0.13-0.12-0.13c-0.07,0-0.11,0.05-0.11,0.13c0,0.2,0,0.41,0,0.61
		c0,0.07,0.04,0.12,0.11,0.12c0.07,0,0.11-0.05,0.11-0.12C6.25,6.9,6.25,6.8,6.25,6.7z"/>
	<path class="st3" d="M5.26,6.69c0,0.1,0,0.2,0,0.3c0,0.06,0.01,0.12,0.09,0.13c0.08,0,0.1-0.06,0.1-0.12c0-0.21,0-0.42,0-0.63
		c0-0.06-0.03-0.12-0.1-0.12c-0.08,0-0.09,0.06-0.09,0.13C5.26,6.49,5.26,6.59,5.26,6.69"/>
	<path class="st3" d="M6.86,6.68c0,0.11,0,0.21,0,0.32c0,0.07,0.03,0.11,0.09,0.11c0.06,0,0.1-0.04,0.1-0.1c0-0.22,0-0.44,0-0.67
		c0-0.06-0.04-0.1-0.1-0.1c-0.06,0-0.09,0.05-0.09,0.11C6.86,6.47,6.86,6.58,6.86,6.68z"/>
	<path class="st3" d="M3.7,6.69C3.7,6.69,3.7,6.69,3.7,6.69c0,0.06,0,0.13,0,0.19c0,0.05,0.03,0.09,0.09,0.09
		c0.06,0,0.09-0.04,0.1-0.09c0-0.13,0-0.26,0-0.39c0-0.05-0.04-0.09-0.1-0.08C3.73,6.41,3.7,6.45,3.7,6.5
		C3.7,6.56,3.7,6.63,3.7,6.69z"/>
	<path class="st3" d="M7.22,6.68C7.22,6.68,7.22,6.68,7.22,6.68c0,0.07,0,0.13,0,0.2c0,0.05,0.03,0.08,0.09,0.09
		c0.06,0,0.1-0.03,0.1-0.09c0-0.13,0-0.25,0-0.38c0-0.05-0.03-0.09-0.09-0.09c-0.06,0-0.09,0.04-0.09,0.1
		C7.22,6.57,7.22,6.63,7.22,6.68z"/>
	<path class="st4" d="M4.47,6.7c0-0.42,0-0.83,0-1.25c0-0.08-0.01-0.18,0.1-0.18c0.1,0,0.09,0.1,0.09,0.18c0,0.84,0,1.68,0,2.52
		c0,0.01,0,0.02,0,0.03c0,0.07-0.02,0.15-0.1,0.14c-0.09,0-0.09-0.08-0.09-0.15C4.47,7.55,4.47,7.12,4.47,6.7z"/>
	<path class="st5" d="M5.63,6.69c0-0.22,0-0.43,0-0.65c0-0.08,0.02-0.14,0.1-0.14c0.08,0,0.12,0.06,0.12,0.14c0,0.43,0,0.86,0,1.29
		c0,0.08-0.02,0.14-0.11,0.14c-0.09,0-0.11-0.07-0.11-0.14C5.63,7.12,5.63,6.91,5.63,6.69z"/>
	<path class="st5" d="M5.07,6.69c0,0.22,0,0.43,0,0.65c0,0.08-0.02,0.14-0.11,0.14c-0.09,0-0.11-0.07-0.11-0.15
		c0-0.43,0-0.85,0-1.28c0-0.08,0.01-0.15,0.1-0.15c0.09,0,0.11,0.07,0.11,0.15C5.07,6.27,5.07,6.48,5.07,6.69z"/>
	<path class="st4" d="M4.06,6.69c0-0.22,0-0.44,0-0.66c0-0.06,0.01-0.13,0.09-0.13c0.08,0,0.1,0.06,0.1,0.13c0,0.44,0,0.88,0,1.32
		c0,0.07-0.02,0.13-0.1,0.13c-0.08,0-0.09-0.06-0.09-0.13C4.06,7.13,4.06,6.91,4.06,6.69z"/>
	<path class="st5" d="M6.63,6.7c0,0.22,0,0.43,0,0.65c0,0.07-0.01,0.13-0.1,0.13c-0.08,0-0.09-0.06-0.09-0.13c0-0.44,0-0.88,0-1.33
		c0-0.07,0.02-0.13,0.09-0.13c0.08,0,0.1,0.06,0.1,0.13C6.63,6.26,6.63,6.48,6.63,6.7z"/>
	<path class="st4" d="M6.25,6.7c0,0.1,0,0.2,0,0.3c0,0.07-0.04,0.12-0.11,0.12C6.07,7.12,6.03,7.07,6.03,7c0-0.2,0-0.41,0-0.61
		c0-0.07,0.03-0.13,0.11-0.13c0.08,0,0.12,0.05,0.12,0.13C6.25,6.49,6.25,6.6,6.25,6.7z"/>
	<path class="st4" d="M5.26,6.69c0-0.1,0-0.2,0-0.3c0-0.06,0.02-0.12,0.09-0.13c0.08,0,0.1,0.06,0.1,0.12c0,0.21,0,0.42,0,0.63
		c0,0.06-0.03,0.12-0.1,0.12c-0.08,0-0.09-0.07-0.09-0.13C5.26,6.89,5.26,6.79,5.26,6.69z"/>
	<path class="st5" d="M6.86,6.68c0-0.11,0-0.21,0-0.32c0-0.06,0.02-0.1,0.09-0.11c0.06,0,0.1,0.04,0.1,0.1c0,0.22,0,0.44,0,0.67
		c0,0.06-0.04,0.1-0.1,0.1c-0.07,0-0.09-0.05-0.09-0.11C6.86,6.9,6.86,6.79,6.86,6.68z"/>
	<path class="st4" d="M3.7,6.69c0-0.06,0-0.13,0-0.19c0-0.05,0.03-0.09,0.09-0.09c0.06,0,0.1,0.03,0.1,0.08
		c0.01,0.13,0.01,0.26,0,0.39c0,0.05-0.04,0.09-0.1,0.09c-0.06,0-0.09-0.04-0.09-0.09C3.7,6.81,3.7,6.75,3.7,6.69
		C3.7,6.69,3.7,6.69,3.7,6.69z"/>
	<path class="st5" d="M7.22,6.68c0-0.06,0-0.11,0-0.17c0-0.06,0.03-0.1,0.09-0.1c0.06,0,0.09,0.04,0.09,0.09c0,0.13,0,0.25,0,0.38
		c0,0.06-0.04,0.09-0.1,0.09c-0.05,0-0.08-0.03-0.09-0.09C7.21,6.82,7.22,6.75,7.22,6.68C7.22,6.68,7.22,6.68,7.22,6.68z"/>
</g>
<path class="st6" d="M1.27,1.94c0.08,0.16,0.17,0.33,0.25,0.49c0.06,0.12,0.12,0.24,0.13,0.37C1.66,2.94,1.6,3.08,1.48,3.14"/>
<path class="st1" d="M2.49,1.59C2.27,1.81,2.05,2.05,1.95,2.35C1.85,2.61,1.86,2.89,1.81,3.17C1.74,3.67,1.5,4.15,1.15,4.52
	c0.33-0.1,0.67-0.2,0.97-0.38C2.43,3.96,2.69,3.7,2.8,3.37C2.9,3.06,2.86,2.72,2.95,2.4C3.01,2.19,3.12,2,3.2,1.8
	c0.05-0.14,0.15-0.58-0.06-0.65C2.96,1.1,2.6,1.48,2.49,1.59z"/>
<path d="M1.15,4.52c0,0,1.21-0.62,1.32-1.5c0,0-0.09-1.03,0.69-1.75c0,0-0.78,0.75-0.82,1.75C2.35,3.02,2.58,3.42,1.15,4.52z"/>
<path class="st7" d="M3.33,1.73c0,0,0.14-0.18,0.34-0.14c0,0,0-0.21,0.14-0.27c0,0-0.23,0.21-0.04,0.36
	C3.77,1.68,3.47,1.65,3.33,1.73z"/>
<circle class="st7" cx="5.1" cy="1.55" r="0.03"/>
<circle class="st7" cx="3.12" cy="2.9" r="0.04"/>
<circle class="st7" cx="2.65" cy="4.24" r="0.03"/>
<circle class="st7" cx="6.65" cy="3.69" r="0.02"/>
<circle class="st7" cx="6.15" cy="2.88" r="0.04"/>
<circle class="st7" cx="2.54" cy="5.17" r="0.04"/>
<circle class="st7" cx="2.32" cy="6.28" r="0.02"/>
</svg>
